<svg width="149.818176" height="24.000000" viewBox="0 0 149.818 24" fill="none" xmlns="http://www.w3.org/2000/svg" xmlns:xlink="http://www.w3.org/1999/xlink">
	<desc>
			Created with Pixso.
	</desc>
	<defs/>
	<rect id="Tab Bar/ Logo" rx="0.000000" width="148.818176" height="23.000000" transform="translate(0.500000 0.500000)" fill="#FFFFFF" fill-opacity="0"/>
	<path id="Б" d="M147.84 4.95C148.4 4.98 149.34 5.63 149.32 7.1C149.3 8.58 148.48 9.05 147.63 9.05C146.78 9.05 144.38 8.97 143.89 9.05C143.41 9.13 143.69 9.52 143.67 9.74C143.64 9.96 144.39 9.91 145.47 9.96C146.55 10 149.72 11.05 149.81 14.53C149.9 18.02 147.66 19.33 144.5 19.34C141.33 19.35 139.69 18.98 139.65 16.98C139.61 14.98 139.63 8 139.58 6.9C139.54 5.79 140.47 4.78 141.92 4.74C143.37 4.71 147.27 4.92 147.84 4.95ZM144.91 13.19C144.29 13.17 144.07 13.56 144.05 13.76C144.03 13.96 144.05 14.32 144.1 14.84C144.15 15.35 145.63 15.52 145.86 14.68C146.09 13.81 145.53 13.21 144.91 13.19Z" fill="#0073E6" fill-opacity="1.000000" fill-rule="evenodd"/>
	<path id="У" d="M125.12 8.67C124.52 7.75 123.76 6.15 125.19 4.91C126.62 3.66 128.31 4.9 129.05 5.98C129.78 7.06 130.45 7.7 130.8 8.1C131.15 8.49 131.94 9.21 132.31 8.02C132.68 6.83 132.9 6.28 133.26 5.47C133.62 4.67 135.14 4.1 136.44 4.61C137.73 5.12 137.9 6.35 137.37 7.79C136.85 9.23 133.94 15.74 132.72 17.56C131.51 19.39 129.17 19.79 127.82 19.54C126.48 19.29 126.35 18.51 126.4 17.27C126.46 16.02 127.29 15.38 128.43 15.23C129.58 15.09 129.44 13.45 128.57 12.56C127.69 11.66 125.72 9.58 125.12 8.67Z" fill="#0073E6" fill-opacity="1.000000" fill-rule="evenodd"/>
	<path id="К" d="M111.71 6.74C111.71 5.7 112.05 4.44 113.98 4.41C115.9 4.39 116.34 5.54 116.36 6.4C116.37 7.27 116.31 7.08 116.34 7.68C116.38 8.28 116.94 8.79 117.81 7.85C118.67 6.91 118.93 6.28 119.6 5.53C120.26 4.77 121.2 4.62 122.3 5.36C123.41 6.11 123.4 7.15 122.54 8.28C121.69 9.42 120.85 10.45 120.55 10.84C120.24 11.23 120.07 11.81 120.78 12.72C121.49 13.63 122.63 15.32 123.22 16.07C123.81 16.83 123.41 17.88 122.45 18.6C121.49 19.32 120.18 19.11 119.39 17.93C118.6 16.75 118.35 16.29 117.89 15.58C117.44 14.87 116.17 14.54 116.17 15.51C116.17 16.47 116.21 17.45 116.22 17.88C116.23 18.3 115.71 19.39 113.89 19.34C112.07 19.3 111.97 17.91 111.95 17.12C111.92 16.34 111.71 7.79 111.71 6.74Z" fill="#0073E6" fill-opacity="1.000000" fill-rule="evenodd"/>
	<path id="Й" d="M94.5 5.78C94.52 6.73 94.47 7.77 94.52 8.53C94.58 9.3 95.1 10.65 96.17 9.28C97.24 7.92 98.57 5.48 99.56 4.65C100.56 3.82 103.96 3.74 104.01 6.02C104.05 8.29 104.08 16.05 104.05 17.26C104.02 18.48 103.17 19.15 101.88 19.19C100.59 19.22 99.51 18.56 99.44 17.37C99.38 16.18 99.42 15.93 99.38 14.87C99.33 13.81 98.35 13.58 97.49 14.74C96.63 15.9 95.62 17.13 94.58 18.44C93.53 19.75 89.83 19.74 89.67 17.68C89.52 15.61 89.51 7.25 89.57 5.94C89.62 4.63 90.37 4.12 92.12 4.1C93.87 4.09 94.48 4.83 94.5 5.78ZM95.93 1.6C96.42 1.93 97.72 2.28 98.15 1.45C98.58 0.62 99.32 0.45 100.26 0.7C101.21 0.94 101.31 2.26 99.72 3.32C98.12 4.38 95.79 4.26 94.42 3.67C93.06 3.08 92.84 2.27 92.81 1.72C92.77 1.19 93.21 0.55 94.19 0.49C95.2 0.42 95.44 1.27 95.93 1.6Z" fill="#0073E6" fill-opacity="1.000000" fill-rule="evenodd"/>
	<path id="И" d="M73.66 6.09C73.7 5.14 74.12 4.43 76.05 4.43C77.99 4.44 78.64 4.84 78.6 5.97C78.57 7.09 78.66 8.39 78.66 9.1C78.66 9.81 79.25 9.93 79.81 9.32C80.36 8.71 81.97 6.53 82.48 5.75C82.99 4.96 83.56 4.6 85.11 4.64C86.66 4.69 87.18 5.05 87.12 6.68C87.05 8.31 87.04 17.28 87.01 18.02C86.98 18.76 86.2 19.22 84.44 19.18C82.69 19.14 82.32 18.74 82.31 17.71C82.31 17.21 82.29 16.2 82.29 15.71C82.29 14.88 81.82 14.24 81.1 15.03C80.14 16.08 79.14 17.5 78.22 18.47C77.31 19.44 76.54 19.32 75.46 19.34C74.38 19.36 73.83 18.77 73.8 17.12C73.77 15.47 73.62 7.04 73.66 6.09Z" fill="#0073E6" fill-opacity="1.000000" fill-rule="evenodd"/>
	<path id="Н" d="M58.03 5.81C58.04 4.96 58.41 4.5 60.65 4.48C62.89 4.46 63.18 5.14 63.17 6.09C63.16 7.04 63.18 8.33 63.19 8.84C63.21 9.35 63.46 9.79 64.56 9.75C65.66 9.7 65.93 9.63 65.92 8.83C65.91 8.03 65.98 6.38 66.03 5.76C66.09 5.14 66.71 4.54 68.55 4.54C70.4 4.54 70.93 4.86 70.98 5.95C71.02 7.03 70.9 17.3 70.89 18.1C70.88 18.9 70.58 19.12 68.55 19.17C66.52 19.21 66.02 19.11 65.93 17.98C65.85 16.84 65.96 15.57 65.96 14.7C65.96 13.82 65.61 13.78 64.47 13.79C63.34 13.8 63.23 14.02 63.18 14.99C63.14 15.97 63.17 17.58 63.18 18.37C63.19 19.16 62.56 19.33 60.52 19.34C58.48 19.35 58.39 18.83 58.28 17.46C58.17 16.1 58.03 6.67 58.03 5.81Z" fill="#0073E6" fill-opacity="1.000000" fill-rule="evenodd"/>
	<path id="И" d="M42.08 6.09C42.13 5.14 42.54 4.43 44.47 4.43C46.41 4.44 47.06 4.84 47.03 5.97C46.99 7.09 47.08 8.39 47.08 9.1C47.08 9.81 47.67 9.93 48.23 9.32C48.78 8.71 50.39 6.53 50.9 5.75C51.41 4.96 51.98 4.6 53.53 4.64C55.08 4.69 55.61 5.05 55.54 6.68C55.47 8.31 55.46 17.28 55.43 18.02C55.4 18.76 54.62 19.22 52.87 19.18C51.11 19.14 50.74 18.74 50.73 17.71C50.73 17.21 50.72 16.2 50.72 15.71C50.72 14.88 50.25 14.24 49.53 15.03C48.57 16.08 47.56 17.5 46.64 18.47C45.73 19.44 44.96 19.32 43.88 19.34C42.8 19.36 42.26 18.77 42.22 17.12C42.19 15.47 42.04 7.04 42.08 6.09Z" fill="#0073E6" fill-opacity="1.000000" fill-rule="evenodd"/>
	<path id="С" d="M34.85 9.69C35.61 9.54 36.53 9.95 37.72 10.14C38.91 10.32 40.16 8.41 39.98 7.15C39.79 5.9 38.6 5.08 37.09 4.61C35.57 4.14 32.98 3.87 30.72 5.49C28.46 7.12 27.48 9.82 27.93 13.29C28.37 16.75 30.79 18.91 34.03 19.39C37.27 19.88 39 19 39.62 18.41C40.24 17.82 40.08 15.98 39.42 14.88C38.77 13.78 37.21 13.77 36.16 13.95C35.11 14.14 32.96 13.58 32.83 12.01C32.7 10.43 34.09 9.83 34.85 9.69Z" fill="#0073E6" fill-opacity="1.000000" fill-rule="evenodd"/>
	<path id="Sign" d="M12.54 21.75C7.42 23.62 5.65 21.94 4.15 17.84L2.23 12.56C0.37 7.43 2.05 5.65 6.15 4.16L11.42 2.24C16.54 0.37 18.32 2.05 19.81 6.15L21.73 11.43C23.59 16.56 21.92 18.34 17.82 19.83L12.54 21.75Z" fill="#0073E6" fill-opacity="1.000000" fill-rule="nonzero"/>
</svg>
